<?xml version="1.0" encoding="UTF-8"?>
<svg width="91px" height="110px" viewBox="0 0 91 110" version="1.1" xmlns="http://www.w3.org/2000/svg" xmlns:xlink="http://www.w3.org/1999/xlink">
    <!-- Generator: Sketch 46.2 (44496) - http://www.bohemiancoding.com/sketch -->
    <title>aprender</title>
    <desc>Created with Sketch.</desc>
    <defs></defs>
    <g id="Page-2" stroke="none" stroke-width="1" fill="none" fill-rule="evenodd">
        <g id="Home" transform="translate(-974.000000, -1329.000000)" fill-rule="nonzero" fill="#36446F">
            <g id="Group-3" transform="translate(295.000000, 1317.000000)">
                <g id="aprender" transform="translate(679.000000, 12.000000)">
                    <g id="Group" transform="translate(0.401709, 0.000000)">
                        <path d="M45.2991453,0 C20.3348291,0 0.0997863248,20.2367521 0.0997863248,45.199359 C0.0997863248,79.5264957 45.2991453,109.401709 45.2991453,109.401709 C45.2991453,109.401709 90.4985043,79.5264957 90.4985043,45.199359 C90.4985043,20.2367521 70.2634615,0 45.2991453,0 Z M45.2991453,80.3292735 C25.8974359,80.3292735 10.1709402,64.6027778 10.1709402,45.199359 C10.1709402,25.7976496 25.8976496,10.0694444 45.2991453,10.0694444 C64.700641,10.0694444 80.4309829,25.7976496 80.4309829,45.199359 C80.4309829,64.6029915 64.7008547,80.3292735 45.2991453,80.3292735 Z" id="Shape"></path>
                        <polygon id="Shape" points="25.1692308 39.6760684 46.1378205 48.4151709 67.1064103 40.0284188 46.1378205 31.6416667"></polygon>
                        <path d="M33.5540598,45.4416667 L33.5540598,54.707906 C33.5540598,57.0228632 39.1880342,58.8995726 46.1378205,58.8995726 C53.0893162,58.8995726 58.7215812,57.0228632 58.7215812,54.707906 L58.7215812,45.6410256 L46.1217949,50.6801282 L33.5540598,45.4416667 Z" id="Shape"></path>
                    </g>
                </g>
            </g>
        </g>
    </g>
</svg>