<?xml version="1.0" encoding="UTF-8"?>
<svg width="91px" height="110px" viewBox="0 0 91 110" version="1.1" xmlns="http://www.w3.org/2000/svg" xmlns:xlink="http://www.w3.org/1999/xlink">
    <!-- Generator: Sketch 46.2 (44496) - http://www.bohemiancoding.com/sketch -->
    <title>info</title>
    <desc>Created with Sketch.</desc>
    <defs></defs>
    <g id="Page-2" stroke="none" stroke-width="1" fill="none" fill-rule="evenodd">
        <g id="Home" transform="translate(-374.000000, -1317.000000)" fill-rule="nonzero" fill="#36446F">
            <g id="Group-3" transform="translate(295.000000, 1317.000000)">
                <g id="info" transform="translate(79.000000, 0.000000)">
                    <g id="Group" transform="translate(0.401709, 0.000000)">
                        <path d="M45.2991453,0 C20.3348291,0 0.0997863248,20.2367521 0.0997863248,45.199359 C0.0997863248,79.5264957 45.2991453,109.401709 45.2991453,109.401709 C45.2991453,109.401709 90.4985043,79.5264957 90.4985043,45.199359 C90.4985043,20.2367521 70.2634615,0 45.2991453,0 Z M45.2991453,80.3292735 C25.8974359,80.3292735 10.1709402,64.6027778 10.1709402,45.199359 C10.1709402,25.7976496 25.8976496,10.0694444 45.2991453,10.0694444 C64.700641,10.0694444 80.4309829,25.7976496 80.4309829,45.199359 C80.4309829,64.6029915 64.7008547,80.3292735 45.2991453,80.3292735 Z" id="Shape"></path>
                        <path d="M46.6880342,25.9081197 C44.4497863,27.8134615 44.1399573,30.9435897 45.9955128,32.8989316 C47.8508547,34.8576923 51.1698718,34.8967949 53.4081197,32.9950855 C55.6446581,31.0861111 55.9542735,27.9559829 54.0987179,26.0008547 C52.2435897,24.0455128 48.9262821,24.0027778 46.6880342,25.9081197 Z" id="Shape"></path>
                        <path d="M51.1645299,57.8027778 C50.9061966,57.8027778 50.6711538,57.8989316 50.4929487,58.059188 C49.5423077,58.9352564 49.1433761,59.2557692 47.9254274,60.0854701 C46.3673077,61.1467949 45.3096154,60.5769231 46.2,57.8489316 C47.0903846,55.1209402 48.5021368,51.4564103 50.5019231,46.1502137 C53.3012821,38.7036325 46.7893162,37.1651709 42.8933761,38.1267094 C40.0036325,38.8388889 37.5196581,40.6587607 35.842094,42.2113248 C35.6247863,42.4036325 35.484188,42.6850427 35.484188,42.9948718 C35.484188,43.5683761 35.9489316,44.0311966 36.5188034,44.0311966 C36.7465812,44.0311966 36.9532051,43.9564103 37.1241453,43.8354701 C37.1277778,43.8318376 37.1794872,43.792735 37.1882479,43.7820513 C37.9076923,43.2051282 38.6429487,42.6673077 39.1790598,42.3611111 C40.5502137,41.5775641 41.8303419,42.1047009 41.1626068,44.0241453 C40.4948718,45.9435897 35.8117521,56.0897436 34.9944444,60.8297009 C34.1788462,65.5698718 38.2476496,67.5568376 43.1818376,65.8260684 C46.4384615,64.6617521 50.2044872,61.2536325 51.8551282,59.5619658 L51.8534188,59.5583333 C52.0529915,59.3732906 52.1775641,59.1094017 52.1775641,58.8175214 C52.1775641,58.258547 51.7254274,57.8027778 51.1645299,57.8027778 Z" id="Shape"></path>
                    </g>
                </g>
            </g>
        </g>
    </g>
</svg>