<?xml version="1.0" encoding="UTF-8"?>
<svg width="100px" height="100px" viewBox="0 0 100 100" version="1.1" xmlns="http://www.w3.org/2000/svg" xmlns:xlink="http://www.w3.org/1999/xlink">
    <!-- Generator: Sketch 46.2 (44496) - http://www.bohemiancoding.com/sketch -->
    <title>ley</title>
    <desc>Created with Sketch.</desc>
    <defs></defs>
    <g id="Page-2" stroke="none" stroke-width="1" fill="none" fill-rule="evenodd">
        <g id="Home" transform="translate(-670.000000, -1329.000000)" fill-rule="nonzero" fill="#36446F">
            <g id="Group-3" transform="translate(295.000000, 1317.000000)">
                <g id="ley" transform="translate(375.000000, 12.000000)">
                    <path d="M99.996875,56.2527344 L99.996875,56.2496094 L99.996875,56.2496094 L89.2890625,19.4859375 C90.7353516,18.3416016 91.6628906,16.5730469 91.6628906,14.5849609 C91.6628906,11.1335937 88.8648437,8.33535156 85.4132812,8.33535156 C81.9621094,8.33535156 79.1636719,11.1335937 79.1636719,14.5849609 C79.1636719,15.3158203 79.2917969,16.0177734 79.5207031,16.6691406 L56.2496094,16.6691406 L56.2496094,6.25273437 C56.2496094,2.80136719 53.4513672,0.003125 50,0.003125 C46.5486328,0.003125 43.7503906,2.80136719 43.7503906,6.25273437 L43.7503906,16.6691406 L20.4775391,16.6691406 C20.7080078,16.0177734 20.8345703,15.3158203 20.8345703,14.5849609 C20.8345703,11.1335938 18.0376953,8.33535156 14.5849609,8.33535156 C11.1335937,8.33535156 8.33535156,11.1335937 8.33535156,14.5849609 C8.33535156,16.5714844 9.26445312,18.3414062 10.7078125,19.4859375 L0.003125,56.2496094 L0.00625,56.2496094 L0.003125,56.2496094 C0.003125,64.3023438 6.53203125,70.8328125 14.5851562,70.8328125 C22.6382812,70.8328125 29.1654297,64.3054687 29.1685547,56.2527344 L29.1685547,56.2527344 L29.1685547,56.2527344 L29.1685547,56.2496094 L29.1669922,56.2496094 L18.8541016,20.8345703 L27.9568359,20.8345703 C32.3464844,24.7085937 37.7646484,27.4443359 43.7501953,28.5794922 L43.7501953,33.3337891 C43.7501953,35.6361328 45.6146484,37.5007813 47.9171875,37.5007813 L47.9171875,66.9269531 C44.3224609,67.8515625 41.6673828,71.1166016 41.6673828,74.9984375 L41.6673828,87.4976562 L25.0011719,87.4976562 C22.7001953,87.4976562 20.834375,89.3619141 20.834375,91.6628906 L20.834375,95.83125 L16.6691406,95.83125 C15.51875,95.83125 14.5849609,96.7621094 14.5849609,97.9125 C14.5849609,99.0628906 15.51875,99.996875 16.6691406,99.996875 L25.0015625,99.996875 L74.9984375,99.996875 L83.3324219,99.996875 C84.4828125,99.996875 85.4132812,99.0630859 85.4132812,97.9125 C85.4132812,96.7619141 84.4826172,95.83125 83.3324219,95.83125 L79.1636719,95.83125 L79.1636719,91.6628906 C79.1636719,89.3619141 77.2994141,87.4976562 74.9984375,87.4976562 L58.3339844,87.4976562 L58.3339844,74.9984375 C58.3339844,71.1166016 55.6759766,67.8515625 52.0828125,66.9269531 L52.0828125,37.5007813 C54.3849609,37.5007813 56.2496094,35.6361328 56.2496094,33.3337891 L56.2496094,28.5794922 C62.2337891,27.4443359 67.6533203,24.7085937 72.0414062,20.8345703 L81.1441406,20.8345703 L70.8330078,56.2496094 L70.8361328,56.2496094 L70.8330078,56.2496094 C70.8330078,64.3023438 77.3601562,70.8328125 85.4130859,70.8328125 C93.4666016,70.8328125 99.9939453,64.3054688 99.996875,56.2527344 L99.996875,56.2527344 L99.996875,56.2527344 Z M14.5849609,12.5023437 C15.7337891,12.5023437 16.6675781,13.4375 16.6675781,14.5849609 C16.6675781,15.7339844 15.7337891,16.6691406 14.5849609,16.6691406 C13.4359375,16.6691406 12.5021484,15.7339844 12.5021484,14.5849609 C12.5023437,13.4375 13.4359375,12.5023437 14.5849609,12.5023437 Z M14.5849609,66.6644531 C10.321875,66.6644531 6.64941406,64.0917969 5.03964844,60.4148437 L24.1318359,60.4148437 C22.5207031,64.0917969 18.8480469,66.6644531 14.5849609,66.6644531 Z M4.34238281,56.2496094 L14.5849609,21.0771484 L24.8275391,56.2496094 L4.34238281,56.2496094 Z M38.6480469,22.7111328 C37.3724609,22.1710938 36.1457031,21.5439453 34.9708984,20.8345703 L43.7501953,20.8345703 L43.7501953,24.3287109 C42.009375,23.9486328 40.3050781,23.4115234 38.6480469,22.7111328 Z M74.9984375,91.6628906 L74.9984375,95.83125 L25.0015625,95.83125 L25.0015625,91.6628906 L41.6677734,91.6628906 L58.3341797,91.6628906 L74.9984375,91.6628906 Z M54.1652344,74.9984375 L54.1652344,87.4976562 L45.8330078,87.4976562 L45.8330078,75.8830078 L45.8330078,75.8830078 L45.8330078,74.9984375 C45.8330078,72.7003906 47.7021484,70.8328125 49.9998047,70.8328125 C52.2980469,70.8328125 54.1652344,72.7005859 54.1652344,74.9984375 Z M83.3324219,14.5849609 C83.3324219,13.4375 84.2660156,12.5023437 85.4132812,12.5023437 C86.5638672,12.5023437 87.4976563,13.4375 87.4976563,14.5849609 C87.4976563,15.7339844 86.5638672,16.6691406 85.4132812,16.6691406 C84.2660156,16.6691406 83.3324219,15.7339844 83.3324219,14.5849609 Z M47.9173828,20.8345703 L47.9173828,16.6691406 L47.9173828,6.25273438 C47.9173828,5.10371094 48.8511719,4.16992187 50,4.16992187 C51.1490234,4.16992187 52.0828125,5.10371094 52.0828125,6.25273438 L52.0828125,16.6691406 L52.0828125,20.8345703 L52.0828125,33.3337891 L47.9173828,33.3337891 L47.9173828,20.8345703 Z M61.3517578,22.7111328 C59.6949219,23.4115234 57.9921875,23.9486328 56.2496094,24.3285156 L56.2496094,20.834375 L65.0289062,20.834375 C63.8542969,21.5441406 62.6273437,22.1712891 61.3517578,22.7111328 Z M85.4132812,21.0771484 L95.6576172,56.2496094 L75.1724609,56.2496094 L85.4132812,21.0771484 Z M85.4132812,66.6644531 C81.1503906,66.6644531 77.4792969,64.0917969 75.8681641,60.4148437 L94.9619141,60.4148437 C93.3505859,64.0917969 89.6767578,66.6644531 85.4132812,66.6644531 Z" id="Shape"></path>
                </g>
            </g>
        </g>
    </g>
</svg>