<?xml version="1.0" encoding="UTF-8"?>
<svg width="98px" height="103px" viewBox="0 0 98 103" version="1.1" xmlns="http://www.w3.org/2000/svg" xmlns:xlink="http://www.w3.org/1999/xlink">
    <!-- Generator: Sketch 46.2 (44496) - http://www.bohemiancoding.com/sketch -->
    <title>lista</title>
    <desc>Created with Sketch.</desc>
    <defs></defs>
    <g id="Page-2" stroke="none" stroke-width="1" fill="none" fill-rule="evenodd">
        <g id="Home" transform="translate(-671.000000, -1706.000000)" fill-rule="nonzero" fill="#36446F">
            <g id="lista" transform="translate(671.000000, 1706.000000)">
                <g id="Group" transform="translate(0.400000, 0.000000)">
                    <path d="M50.4028,8.0056 L28.0024,8.0056 C27.7354,8.0056 27.4854,7.8712 27.3368,7.6494 L24.1374,2.85 C23.892,2.4828 23.992,1.986 24.3592,1.7408 C24.7232,1.4972 25.2216,1.594 25.4684,1.9626 L28.4306,6.4058 L50.0716,6.4058 L54.6336,1.8408 C54.946,1.5284 55.4522,1.5284 55.7646,1.8408 C56.077,2.1532 56.077,2.6594 55.7646,2.972 L50.9684,7.7714 C50.8182,7.9212 50.615,8.0056 50.4028,8.0056 Z" id="Shape"></path>
                    <path d="M23.2032,6.4058 L5.6054,6.4058 C5.1634,6.4058 4.8054,6.048 4.8054,5.6058 C4.8054,5.1636 5.1632,4.8058 5.6054,4.8058 L23.2032,4.8058 C23.6452,4.8058 24.003,5.1636 24.003,5.6058 C24.003,6.048 23.6452,6.4058 23.2032,6.4058 Z" id="Shape"></path>
                    <path d="M74.3964,6.4058 L55.199,6.4058 C54.7568,6.4058 54.399,6.048 54.399,5.6058 C54.399,5.1636 54.7568,4.8058 55.199,4.8058 L74.3964,4.8058 C74.8384,4.8058 75.1962,5.1636 75.1962,5.6058 C75.1962,6.048 74.8384,6.4058 74.3964,6.4058 Z" id="Shape"></path>
                    <path d="M45.6002,4.806 L32.8018,4.806 C32.3598,4.806 32.002,4.4482 32.002,4.006 C32.002,3.564 32.3598,3.2062 32.8018,3.2062 L45.6002,3.2062 C46.0422,3.2062 46.4,3.564 46.4,4.006 C46.4,4.4482 46.0422,4.806 45.6002,4.806 Z" id="Shape"></path>
                    <g transform="translate(63.800000, 86.200000)" id="Shape">
                        <path d="M7.3968,1.7952 L0.9976,1.7952 C0.5556,1.7952 0.1978,1.4376 0.1978,0.9954 C0.1978,0.5532 0.5556,0.1954 0.9976,0.1954 L7.3968,0.1954 C7.8388,0.1954 8.1966,0.5532 8.1966,0.9954 C8.1966,1.4376 7.8388,1.7952 7.3968,1.7952 Z"></path>
                        <path d="M0.9976,8.1944 C0.5556,8.1944 0.1978,7.8366 0.1978,7.3946 L0.1978,0.9954 C0.1978,0.5532 0.5556,0.1954 0.9976,0.1954 C1.4398,0.1954 1.7974,0.5532 1.7974,0.9954 L1.7974,7.3946 C1.7974,7.8366 1.4398,8.1944 0.9976,8.1944 Z"></path>
                    </g>
                    <path d="M5.6054,97.594 C5.1634,97.594 4.8054,97.2362 4.8054,96.7942 L4.8054,5.6058 C4.8054,5.1636 5.1632,4.8058 5.6054,4.8058 C6.0476,4.8058 6.4054,5.1636 6.4054,5.6058 L6.4054,96.794 C6.4052,97.2362 6.0474,97.594 5.6054,97.594 Z" id="Shape"></path>
                    <path d="M74.3964,89.595 C73.9542,89.595 73.5964,89.2372 73.5964,88.7952 L73.5964,5.6058 C73.5964,5.1636 73.9542,4.8058 74.3964,4.8058 C74.8384,4.8058 75.1962,5.1636 75.1962,5.6058 L75.1962,88.795 C75.1962,89.2372 74.8384,89.595 74.3964,89.595 Z" id="Shape"></path>
                    <path d="M66.3974,97.594 C66.1928,97.594 65.988,97.5158 65.8318,97.3596 C65.5194,97.0472 65.5194,96.541 65.8318,96.2286 L73.8308,88.2296 C74.1432,87.9172 74.6494,87.9172 74.9618,88.2296 C75.2742,88.542 75.2742,89.0482 74.9618,89.3606 L66.963,97.3596 C66.8068,97.5158 66.6022,97.594 66.3974,97.594 Z" id="Shape"></path>
                    <path d="M66.3974,97.594 L5.6054,97.594 C5.1634,97.594 4.8054,97.2362 4.8054,96.7942 C4.8054,96.352 5.1632,95.9942 5.6054,95.9942 L66.3974,95.9942 C66.8396,95.9942 67.1974,96.352 67.1974,96.7942 C67.1974,97.2362 66.8396,97.594 66.3974,97.594 Z" id="Shape"></path>
                    <path d="M79.1958,102.3934 C78.7536,102.3934 78.3958,102.0356 78.3958,101.5934 L78.3958,0.8064 C78.3958,0.3644 78.7536,0.0066 79.1958,0.0066 C79.6378,0.0066 79.9956,0.3644 79.9956,0.8064 L79.9956,101.5934 C79.9958,102.0356 79.6378,102.3934 79.1958,102.3934 Z" id="Shape"></path>
                    <path d="M79.1958,102.3934 L0.806,102.3934 C0.3638,102.3934 0.006,102.0356 0.006,101.5934 C0.006,101.1512 0.3638,100.7936 0.806,100.7936 L79.1958,100.7936 C79.6378,100.7936 79.9956,101.1512 79.9956,101.5934 C79.9956,102.0356 79.6378,102.3934 79.1958,102.3934 Z" id="Shape"></path>
                    <path d="M0.806,102.3934 C0.3638,102.3934 0.006,102.0356 0.006,101.5934 L0.006,0.8064 C0.006,0.3644 0.3638,0.0066 0.806,0.0066 C1.248,0.0066 1.6058,0.3644 1.6058,0.8064 L1.6058,101.5934 C1.6058,102.0356 1.248,102.3934 0.806,102.3934 Z" id="Shape"></path>
                    <path d="M79.1958,1.6064 L0.806,1.6064 C0.3638,1.6064 0.006,1.2486 0.006,0.8064 C0.006,0.3644 0.3638,0.0066 0.806,0.0066 L79.1958,0.0066 C79.6378,0.0066 79.9956,0.3644 79.9956,0.8064 C79.9958,1.2486 79.6378,1.6064 79.1958,1.6064 Z" id="Shape"></path>
                    <g transform="translate(86.200000, 19.200000)" id="Shape">
                        <path d="M5.7942,71.9962 C5.5364,71.9962 5.2834,71.8712 5.1288,71.6402 L1.9292,66.8406 C1.7916,66.6362 1.7574,66.3782 1.8354,66.144 L3.3946,61.468 L3.3946,59.9978 C3.3946,59.5558 3.7522,59.198 4.1944,59.198 C4.6366,59.198 4.9944,59.5558 4.9944,59.9978 L4.9944,61.5976 C4.9944,61.6836 4.9804,61.7694 4.9538,61.8508 L3.4772,66.2784 L6.4596,70.7528 C6.705,71.12 6.605,71.6168 6.238,71.862 C6.102,71.9526 5.9472,71.9962 5.7942,71.9962 Z"></path>
                        <path d="M5.7942,71.9962 C5.641,71.9962 5.4864,71.9524 5.3504,71.8618 C4.9834,71.6166 4.8834,71.1198 5.1288,70.7526 L8.1112,66.2782 L6.6346,61.8506 C6.608,61.7694 6.594,61.6834 6.594,61.5974 L6.594,59.9976 C6.594,59.5556 6.9518,59.1978 7.394,59.1978 C7.8362,59.1978 8.194,59.5556 8.194,59.9976 L8.194,61.4678 L9.753,66.1438 C9.8312,66.3782 9.7968,66.636 9.6592,66.8404 L6.4596,71.64 C6.305,71.8712 6.052,71.9962 5.7942,71.9962 Z"></path>
                        <path d="M8.9938,47.9994 L2.5946,47.9994 C2.1526,47.9994 1.7948,47.6416 1.7948,47.1996 C1.7948,46.7574 2.1526,46.3996 2.5946,46.3996 L8.9938,46.3996 C9.436,46.3996 9.7936,46.7574 9.7936,47.1996 C9.7936,47.6416 9.436,47.9994 8.9938,47.9994 Z"></path>
                        <path d="M2.5946,47.9994 C2.1666,47.9994 1.812,47.6618 1.7948,47.2308 L0.195,7.2344 C0.1778,6.7938 0.5214,6.422 0.9636,6.4034 C1.4276,6.4346 1.7776,6.7298 1.7948,7.172 L3.3946,47.1684 C3.4118,47.609 3.068,47.9808 2.6258,47.9994 C2.6164,47.9994 2.6054,47.9994 2.5946,47.9994 Z"></path>
                        <path d="M8.9938,47.9994 C8.9828,47.9994 8.9734,47.9994 8.9626,47.9994 C8.5204,47.9806 8.1768,47.609 8.194,47.1684 L9.7936,7.172 C9.8124,6.73 10.2108,6.4394 10.6248,6.4034 C11.067,6.4222 11.4106,6.794 11.3934,7.2344 L9.7936,47.2308 C9.7764,47.662 9.4218,47.9994 8.9938,47.9994 Z"></path>
                        <path d="M10.5936,8.0032 C10.1514,8.0032 9.7936,7.6454 9.7936,7.2032 C9.7936,3.4882 8.4484,1.604 5.7942,1.604 C3.14,1.604 1.7948,3.4882 1.7948,7.2032 C1.7948,7.6454 1.437,8.0032 0.9948,8.0032 C0.5526,8.0032 0.195,7.6454 0.195,7.2032 C0.195,2.6288 2.2354,0.0042 5.7942,0.0042 C9.3532,0.0042 11.3934,2.6288 11.3934,7.2032 C11.3934,7.6454 11.0358,8.0032 10.5936,8.0032 Z"></path>
                        <path d="M7.394,1.604 L4.1944,1.604 C3.7522,1.604 3.3946,1.2462 3.3946,0.804 C3.3946,0.3618 3.7522,0.004 4.1944,0.004 L7.394,0.004 C7.8362,0.004 8.194,0.3618 8.194,0.804 C8.194,1.2462 7.8362,1.604 7.394,1.604 Z"></path>
                        <path d="M5.7942,28.8004 C5.352,28.8004 4.9944,28.4426 4.9944,28.0004 L4.9944,4.0036 C4.9944,3.5616 5.352,3.2038 5.7942,3.2038 C6.2364,3.2038 6.594,3.5616 6.594,4.0036 L6.594,28.0006 C6.594,28.4426 6.2364,28.8004 5.7942,28.8004 Z"></path>
                        <path d="M8.9938,51.199 L2.5946,51.199 C2.1526,51.199 1.7948,50.8412 1.7948,50.3992 C1.7948,49.957 2.1526,49.5992 2.5946,49.5992 L8.9938,49.5992 C9.436,49.5992 9.7936,49.957 9.7936,50.3992 C9.7936,50.8412 9.436,51.199 8.9938,51.199 Z"></path>
                        <path d="M8.9938,51.199 C8.5516,51.199 8.194,50.8412 8.194,50.3992 L8.194,47.1996 C8.194,46.7574 8.5516,46.3996 8.9938,46.3996 C9.436,46.3996 9.7936,46.7574 9.7936,47.1996 L9.7936,50.3992 C9.7936,50.8412 9.436,51.199 8.9938,51.199 Z"></path>
                        <path d="M2.5946,51.199 C2.1526,51.199 1.7948,50.8412 1.7948,50.3992 L1.7948,47.1996 C1.7948,46.7574 2.1526,46.3996 2.5946,46.3996 C3.0368,46.3996 3.3946,46.7574 3.3946,47.1996 L3.3946,50.3992 C3.3946,50.8412 3.0368,51.199 2.5946,51.199 Z"></path>
                        <path d="M8.9938,60.7976 L2.5946,60.7976 C2.1526,60.7976 1.7948,60.44 1.7948,59.9978 C1.7948,59.5558 2.1526,59.198 2.5946,59.198 L8.9938,59.198 C9.436,59.198 9.7936,59.5558 9.7936,59.9978 C9.7936,60.44 9.436,60.7976 8.9938,60.7976 Z"></path>
                        <path d="M8.9938,60.7976 C8.5516,60.7976 8.194,60.44 8.194,59.9978 L8.194,50.3992 C8.194,49.957 8.5516,49.5992 8.9938,49.5992 C9.436,49.5992 9.7936,49.957 9.7936,50.3992 L9.7936,59.9978 C9.7936,60.44 9.436,60.7976 8.9938,60.7976 Z"></path>
                        <path d="M2.5946,60.7976 C2.1526,60.7976 1.7948,60.44 1.7948,59.9978 L1.7948,50.3992 C1.7948,49.957 2.1526,49.5992 2.5946,49.5992 C3.0368,49.5992 3.3946,49.957 3.3946,50.3992 L3.3946,59.9978 C3.3946,60.44 3.0368,60.7976 2.5946,60.7976 Z"></path>
                    </g>
                    <path d="M18.4038,32.0024 C18.1992,32.0024 17.9944,31.9242 17.8382,31.7682 L14.6386,28.5686 C14.3262,28.2562 14.3262,27.7498 14.6386,27.4374 C14.951,27.125 15.4572,27.125 15.7698,27.4374 L18.9694,30.637 C19.2818,30.9494 19.2818,31.4556 18.9694,31.7682 C18.813,31.9244 18.6084,32.0024 18.4038,32.0024 Z" id="Shape"></path>
                    <path d="M18.4038,32.0024 C18.1992,32.0024 17.9944,31.9242 17.8382,31.7682 C17.5258,31.4558 17.5258,30.9494 17.8382,30.637 L24.2374,24.2378 C24.5498,23.9254 25.056,23.9254 25.3684,24.2378 C25.6808,24.5502 25.6808,25.0564 25.3684,25.3688 L18.9692,31.768 C18.813,31.9244 18.6084,32.0024 18.4038,32.0024 Z" id="Shape"></path>
                    <path d="M64.7976,24.0036 L32.8018,24.0036 C32.3598,24.0036 32.002,23.6458 32.002,23.2036 C32.002,22.7616 32.3598,22.4038 32.8018,22.4038 L64.7976,22.4038 C65.2398,22.4038 65.5974,22.7616 65.5974,23.2036 C65.5974,23.6458 65.2398,24.0036 64.7976,24.0036 Z" id="Shape"></path>
                    <path d="M64.7976,28.803 L32.8018,28.803 C32.3598,28.803 32.002,28.4452 32.002,28.003 C32.002,27.561 32.3598,27.2032 32.8018,27.2032 L64.7976,27.2032 C65.2398,27.2032 65.5974,27.561 65.5974,28.003 C65.5974,28.4452 65.2398,28.803 64.7976,28.803 Z" id="Shape"></path>
                    <path d="M48.7998,33.6022 L32.8018,33.6022 C32.3598,33.6022 32.002,33.2444 32.002,32.8022 C32.002,32.36 32.3598,32.0022 32.8018,32.0022 L48.7998,32.0022 C49.242,32.0022 49.5996,32.36 49.5996,32.8022 C49.5996,33.2444 49.242,33.6022 48.7998,33.6022 Z" id="Shape"></path>
                    <path d="M15.2042,55.9992 C14.9996,55.9992 14.7948,55.921 14.6386,55.765 C14.3262,55.4526 14.3262,54.9462 14.6386,54.634 L22.6376,46.635 C22.95,46.3226 23.4562,46.3226 23.7686,46.635 C24.081,46.9474 24.081,47.4536 23.7686,47.766 L15.7698,55.765 C15.6134,55.921 15.4088,55.9992 15.2042,55.9992 Z" id="Shape"></path>
                    <path d="M23.2032,55.9992 C22.9986,55.9992 22.7938,55.921 22.6376,55.765 L14.6386,47.766 C14.3262,47.4536 14.3262,46.9474 14.6386,46.635 C14.951,46.3226 15.4572,46.3226 15.7698,46.635 L23.7686,54.634 C24.081,54.9464 24.081,55.4526 23.7686,55.765 C23.6124,55.921 23.4078,55.9992 23.2032,55.9992 Z" id="Shape"></path>
                    <path d="M64.7976,46.4006 L32.8018,46.4006 C32.3598,46.4006 32.002,46.0428 32.002,45.6006 C32.002,45.1584 32.3598,44.8006 32.8018,44.8006 L64.7976,44.8006 C65.2398,44.8006 65.5974,45.1584 65.5974,45.6006 C65.5974,46.0428 65.2398,46.4006 64.7976,46.4006 Z" id="Shape"></path>
                    <path d="M64.7976,51.2 L32.8018,51.2 C32.3598,51.2 32.002,50.8422 32.002,50.4 C32.002,49.958 32.3598,49.6002 32.8018,49.6002 L64.7976,49.6002 C65.2398,49.6002 65.5974,49.958 65.5974,50.4 C65.5974,50.8422 65.2398,51.2 64.7976,51.2 Z" id="Shape"></path>
                    <path d="M48.7998,55.9992 L32.8018,55.9992 C32.3598,55.9992 32.002,55.6416 32.002,55.1994 C32.002,54.7574 32.3598,54.3996 32.8018,54.3996 L48.7998,54.3996 C49.242,54.3996 49.5996,54.7574 49.5996,55.1994 C49.5996,55.6416 49.242,55.9992 48.7998,55.9992 Z" id="Shape"></path>
                    <path d="M18.4038,76.7966 C18.1992,76.7966 17.9944,76.7184 17.8382,76.5622 L14.6386,73.3626 C14.3262,73.0502 14.3262,72.544 14.6386,72.2316 C14.951,71.9192 15.4572,71.9192 15.7698,72.2316 L18.9694,75.4312 C19.2818,75.7436 19.2818,76.2498 18.9694,76.5622 C18.813,76.7186 18.6084,76.7966 18.4038,76.7966 Z" id="Shape"></path>
                    <path d="M18.4038,76.7966 C18.1992,76.7966 17.9944,76.7184 17.8382,76.5622 C17.5258,76.2498 17.5258,75.7436 17.8382,75.4312 L24.2374,69.032 C24.5498,68.7196 25.056,68.7196 25.3684,69.032 C25.6808,69.3444 25.6808,69.8506 25.3684,70.163 L18.9692,76.5622 C18.813,76.7186 18.6084,76.7966 18.4038,76.7966 Z" id="Shape"></path>
                    <path d="M64.7976,68.7976 L32.8018,68.7976 C32.3598,68.7976 32.002,68.4398 32.002,67.9976 C32.002,67.5556 32.3598,67.1978 32.8018,67.1978 L64.7976,67.1978 C65.2398,67.1978 65.5974,67.5556 65.5974,67.9976 C65.5974,68.4398 65.2398,68.7976 64.7976,68.7976 Z" id="Shape"></path>
                    <path d="M64.7976,73.597 L32.8018,73.597 C32.3598,73.597 32.002,73.2392 32.002,72.7972 C32.002,72.355 32.3598,71.9972 32.8018,71.9972 L64.7976,71.9972 C65.2398,71.9972 65.5974,72.355 65.5974,72.7972 C65.5974,73.2392 65.2398,73.597 64.7976,73.597 Z" id="Shape"></path>
                    <path d="M48.7998,78.3964 L32.8018,78.3964 C32.3598,78.3964 32.002,78.0386 32.002,77.5964 C32.002,77.1542 32.3598,76.7966 32.8018,76.7966 L48.7998,76.7966 C49.242,76.7966 49.5996,77.1542 49.5996,77.5964 C49.5996,78.0386 49.242,78.3964 48.7998,78.3964 Z" id="Shape"></path>
                </g>
            </g>
        </g>
    </g>
</svg>