<?xml version="1.0" encoding="UTF-8"?>
<svg width="50px" height="50px" viewBox="0 0 50 50" version="1.1" xmlns="http://www.w3.org/2000/svg" xmlns:xlink="http://www.w3.org/1999/xlink">
    <!-- Generator: Sketch 46.2 (44496) - http://www.bohemiancoding.com/sketch -->
    <title>search</title>
    <desc>Created with Sketch.</desc>
    <defs></defs>
    <g id="Symbols" stroke="none" stroke-width="1" fill="none" fill-rule="evenodd">
        <g id="Nav" transform="translate(-1150.000000, -40.000000)" fill-rule="nonzero" fill="#4A4A4A">
            <g id="navbar">
                <g id="nav-right" transform="translate(1150.000000, 40.000000)">
                    <g id="search">
                        <g id="Group">
                            <g id="Shape">
                                <path d="M17.5792969,35.1573242 C12.8850586,35.1573242 8.47177734,33.3290039 5.15244141,30.009668 C-1.69960937,23.1580078 -1.69960937,12.0083008 5.15244141,5.15664062 C8.47177734,1.83720703 12.884668,0.008984375 17.5789062,0.008984375 C22.2731445,0.008984375 26.6859375,1.83730469 30.0053711,5.15664062 C33.324707,8.47607422 35.1538086,12.8892578 35.1538086,17.5832031 C35.1538086,22.2770508 33.3262695,26.6902344 30.0069336,30.009668 C26.6866211,33.3290039 22.2731445,35.1573242 17.5792969,35.1573242 Z M17.5789062,0.790039062 C13.0931641,0.790039062 8.87646484,2.5375 5.70458984,5.70888672 C-0.842675781,12.25625 -0.842675781,22.9101562 5.70458984,29.4574219 C8.87636719,32.6289062 13.0935547,34.3762695 17.5792969,34.3762695 C22.0645508,34.3762695 26.2816406,32.6288086 29.4546875,29.4574219 C32.6261719,26.2852539 34.3727539,22.0688477 34.3727539,17.5832031 C34.3727539,13.0974609 32.625293,8.88037109 29.453125,5.70888672 C26.280957,2.53740234 22.0641602,0.790039062 17.5789062,0.790039062 Z"></path>
                                <path d="M17.5789062,33.59375 C13.3018555,33.59375 9.28105469,31.9286133 6.25683594,28.9051758 C0.0142578125,22.6628906 0.0142578125,12.5048828 6.25683594,6.26259766 C9.28105469,3.23837891 13.3022461,1.57255859 17.5796875,1.57255859 C21.85625,1.57255859 25.8766602,3.23759766 28.9009766,6.26103516 C35.1416016,12.5040039 35.1423828,22.6613281 28.9025391,28.9050781 C25.8773437,31.9286133 21.85625,33.59375 17.5789062,33.59375 Z M17.5796875,2.35361328 C13.5108398,2.35361328 9.68574219,3.93779297 6.80908203,6.81484375 C0.871191406,12.7527344 0.871191406,22.4150391 6.80908203,28.3529297 C9.68574219,31.228418 13.5104492,32.8126953 17.5789062,32.8126953 C21.6476562,32.8126953 25.4728516,31.228418 28.3501953,28.3529297 C34.2857422,22.4142578 34.2849609,12.7511719 28.3486328,6.81337891 C25.4720703,3.93779297 21.6476562,2.35361328 17.5796875,2.35361328 Z"></path>
                                <path d="M32.7374023,35.8917969 C32.6375,35.8917969 32.5375977,35.8536133 32.4613281,35.7774414 L28.9024414,32.2185547 C28.7499023,32.0660156 28.7499023,31.81875 28.9024414,31.6663086 C29.0549805,31.5137695 29.3021484,31.5137695 29.4545898,31.6663086 L33.0134766,35.2251953 C33.1660156,35.3777344 33.1660156,35.6249023 33.0134766,35.7774414 C32.937207,35.8537109 32.8374023,35.8917969 32.7374023,35.8917969 Z"></path>
                                <path d="M35.4985352,33.1322266 C35.3987305,33.1322266 35.2987305,33.094043 35.2224609,33.0177734 L31.6635742,29.4573242 C31.5110352,29.3047852 31.5110352,29.0576172 31.6635742,28.9051758 C31.8161133,28.7526367 32.0632812,28.7526367 32.2157227,28.9051758 L35.7746094,32.465625 C35.9271484,32.6181641 35.9271484,32.865332 35.7746094,33.0177734 C35.6984375,33.0941406 35.5984375,33.1322266 35.4985352,33.1322266 Z"></path>
                                <path d="M32.1851563,36.4456055 C32.0853516,36.4456055 31.9853516,36.4074219 31.909082,36.3311523 C31.756543,36.1786133 31.756543,35.9314453 31.909082,35.7790039 L35.7746094,31.9133789 C35.9271484,31.7608398 36.1743164,31.7608398 36.3268555,31.9133789 C36.4793945,32.065918 36.4793945,32.3130859 36.3268555,32.465625 L32.4613281,36.3311523 C32.3850586,36.4074219 32.2851563,36.4456055 32.1851563,36.4456055 Z"></path>
                                <path d="M48.7426758,45.2727539 C48.6427734,45.2727539 48.5427734,45.2345703 48.4666016,45.1583008 L35.7746094,32.465625 C35.6220703,32.3130859 35.6220703,32.065918 35.7746094,31.9133789 C35.9271484,31.7608398 36.1743164,31.7608398 36.3268555,31.9133789 L49.01875,44.6060547 C49.1712891,44.7585937 49.1712891,45.0058594 49.01875,45.1583008 C48.9424805,45.2345703 48.8425781,45.2727539 48.7426758,45.2727539 Z"></path>
                                <path d="M44.9290039,49.1885742 C44.8291016,49.1885742 44.7291016,49.1503906 44.6529297,49.0741211 L31.909082,36.3311523 C31.756543,36.1786133 31.756543,35.9314453 31.909082,35.7790039 C32.0616211,35.6264648 32.3087891,35.6264648 32.4613281,35.7790039 L45.2050781,48.5219727 C45.3576172,48.6745117 45.3576172,48.921582 45.2050781,49.0741211 C45.1288086,49.1504883 45.0289062,49.1885742 44.9290039,49.1885742 Z"></path>
                                <path d="M46.8632813,49.9910156 C46.028125,49.9910156 45.2432617,49.6652344 44.6521484,49.0741211 C44.500293,48.921582 44.500293,48.6744141 44.6529297,48.5219727 C44.8054687,48.3694336 45.0525391,48.3694336 45.2050781,48.5219727 C45.6482422,48.9658203 46.2370117,49.2099609 46.8631836,49.2099609 C46.8639648,49.2099609 46.8639648,49.2099609 46.8639648,49.2099609 C47.4894531,49.2091797 48.0767578,48.9658203 48.5175781,48.5235352 C48.9615234,48.0803711 49.2055664,47.4921875 49.2055664,46.8667969 C49.2055664,46.240625 48.9615234,45.6518555 48.5183594,45.2086914 C48.3658203,45.0561523 48.3658203,44.8089844 48.5183594,44.6564453 C48.6708984,44.5039062 48.9181641,44.5039062 49.0706055,44.6564453 C49.6617188,45.2476562 49.9866211,46.0324219 49.9866211,46.8668945 C49.9866211,47.7013672 49.6609375,48.4854492 49.0706055,49.0757812 C48.4826172,49.665332 47.6992188,49.990332 46.8647461,49.9911133 C46.8640625,49.9910156 46.8640625,49.9910156 46.8632813,49.9910156 Z"></path>
                                <path d="M47.6901367,46.4275391 C47.5902344,46.4275391 47.490332,46.3893555 47.4140625,46.3130859 L35.7746094,34.6729492 C35.6220703,34.5204102 35.6220703,34.2733398 35.7746094,34.1208008 C35.9271484,33.9682617 36.1743164,33.9682617 36.3268555,34.1208008 L47.9662109,45.7608398 C48.11875,45.9133789 48.11875,46.1605469 47.9662109,46.3130859 C47.8899414,46.3893555 47.7899414,46.4275391 47.6901367,46.4275391 Z"></path>
                            </g>
                        </g>
                        <g id="Group-Copy">
                            <g id="Group">
                                <path d="M17.5792969,35.1573242 C12.8850586,35.1573242 8.47177734,33.3290039 5.15244141,30.009668 C-1.69960937,23.1580078 -1.69960937,12.0083008 5.15244141,5.15664062 C8.47177734,1.83720703 12.884668,0.008984375 17.5789062,0.008984375 C22.2731445,0.008984375 26.6859375,1.83730469 30.0053711,5.15664062 C33.324707,8.47607422 35.1538086,12.8892578 35.1538086,17.5832031 C35.1538086,22.2770508 33.3262695,26.6902344 30.0069336,30.009668 C26.6866211,33.3290039 22.2731445,35.1573242 17.5792969,35.1573242 Z M17.5789062,0.790039062 C13.0931641,0.790039062 8.87646484,2.5375 5.70458984,5.70888672 C-0.842675781,12.25625 -0.842675781,22.9101562 5.70458984,29.4574219 C8.87636719,32.6289062 13.0935547,34.3762695 17.5792969,34.3762695 C22.0645508,34.3762695 26.2816406,32.6288086 29.4546875,29.4574219 C32.6261719,26.2852539 34.3727539,22.0688477 34.3727539,17.5832031 C34.3727539,13.0974609 32.625293,8.88037109 29.453125,5.70888672 C26.280957,2.53740234 22.0641602,0.790039062 17.5789062,0.790039062 Z" id="Shape"></path>
                                <path d="M17.5789062,33.59375 C13.3018555,33.59375 9.28105469,31.9286133 6.25683594,28.9051758 C0.0142578125,22.6628906 0.0142578125,12.5048828 6.25683594,6.26259766 C9.28105469,3.23837891 13.3022461,1.57255859 17.5796875,1.57255859 C21.85625,1.57255859 25.8766602,3.23759766 28.9009766,6.26103516 C35.1416016,12.5040039 35.1423828,22.6613281 28.9025391,28.9050781 C25.8773437,31.9286133 21.85625,33.59375 17.5789062,33.59375 Z M17.5796875,2.35361328 C13.5108398,2.35361328 9.68574219,3.93779297 6.80908203,6.81484375 C0.871191406,12.7527344 0.871191406,22.4150391 6.80908203,28.3529297 C9.68574219,31.228418 13.5104492,32.8126953 17.5789062,32.8126953 C21.6476562,32.8126953 25.4728516,31.228418 28.3501953,28.3529297 C34.2857422,22.4142578 34.2849609,12.7511719 28.3486328,6.81337891 C25.4720703,3.93779297 21.6476562,2.35361328 17.5796875,2.35361328 Z" id="Shape"></path>
                                <path d="M32.7374023,35.8917969 C32.6375,35.8917969 32.5375977,35.8536133 32.4613281,35.7774414 L28.9024414,32.2185547 C28.7499023,32.0660156 28.7499023,31.81875 28.9024414,31.6663086 C29.0549805,31.5137695 29.3021484,31.5137695 29.4545898,31.6663086 L33.0134766,35.2251953 C33.1660156,35.3777344 33.1660156,35.6249023 33.0134766,35.7774414 C32.937207,35.8537109 32.8374023,35.8917969 32.7374023,35.8917969 Z" id="Shape"></path>
                                <path d="M35.4985352,33.1322266 C35.3987305,33.1322266 35.2987305,33.094043 35.2224609,33.0177734 L31.6635742,29.4573242 C31.5110352,29.3047852 31.5110352,29.0576172 31.6635742,28.9051758 C31.8161133,28.7526367 32.0632812,28.7526367 32.2157227,28.9051758 L35.7746094,32.465625 C35.9271484,32.6181641 35.9271484,32.865332 35.7746094,33.0177734 C35.6984375,33.0941406 35.5984375,33.1322266 35.4985352,33.1322266 Z" id="Shape"></path>
                                <path d="M32.1851563,36.4456055 C32.0853516,36.4456055 31.9853516,36.4074219 31.909082,36.3311523 C31.756543,36.1786133 31.756543,35.9314453 31.909082,35.7790039 L35.7746094,31.9133789 C35.9271484,31.7608398 36.1743164,31.7608398 36.3268555,31.9133789 C36.4793945,32.065918 36.4793945,32.3130859 36.3268555,32.465625 L32.4613281,36.3311523 C32.3850586,36.4074219 32.2851563,36.4456055 32.1851563,36.4456055 Z" id="Shape"></path>
                                <path d="M48.7426758,45.2727539 C48.6427734,45.2727539 48.5427734,45.2345703 48.4666016,45.1583008 L35.7746094,32.465625 C35.6220703,32.3130859 35.6220703,32.065918 35.7746094,31.9133789 C35.9271484,31.7608398 36.1743164,31.7608398 36.3268555,31.9133789 L49.01875,44.6060547 C49.1712891,44.7585937 49.1712891,45.0058594 49.01875,45.1583008 C48.9424805,45.2345703 48.8425781,45.2727539 48.7426758,45.2727539 Z" id="Shape"></path>
                                <path d="M44.9290039,49.1885742 C44.8291016,49.1885742 44.7291016,49.1503906 44.6529297,49.0741211 L31.909082,36.3311523 C31.756543,36.1786133 31.756543,35.9314453 31.909082,35.7790039 C32.0616211,35.6264648 32.3087891,35.6264648 32.4613281,35.7790039 L45.2050781,48.5219727 C45.3576172,48.6745117 45.3576172,48.921582 45.2050781,49.0741211 C45.1288086,49.1504883 45.0289062,49.1885742 44.9290039,49.1885742 Z" id="Shape"></path>
                                <path d="M46.8632813,49.9910156 C46.028125,49.9910156 45.2432617,49.6652344 44.6521484,49.0741211 C44.500293,48.921582 44.500293,48.6744141 44.6529297,48.5219727 C44.8054687,48.3694336 45.0525391,48.3694336 45.2050781,48.5219727 C45.6482422,48.9658203 46.2370117,49.2099609 46.8631836,49.2099609 C46.8639648,49.2099609 46.8639648,49.2099609 46.8639648,49.2099609 C47.4894531,49.2091797 48.0767578,48.9658203 48.5175781,48.5235352 C48.9615234,48.0803711 49.2055664,47.4921875 49.2055664,46.8667969 C49.2055664,46.240625 48.9615234,45.6518555 48.5183594,45.2086914 C48.3658203,45.0561523 48.3658203,44.8089844 48.5183594,44.6564453 C48.6708984,44.5039062 48.9181641,44.5039062 49.0706055,44.6564453 C49.6617188,45.2476562 49.9866211,46.0324219 49.9866211,46.8668945 C49.9866211,47.7013672 49.6609375,48.4854492 49.0706055,49.0757812 C48.4826172,49.665332 47.6992188,49.990332 46.8647461,49.9911133 C46.8640625,49.9910156 46.8640625,49.9910156 46.8632813,49.9910156 Z" id="Shape"></path>
                                <path d="M47.6901367,46.4275391 C47.5902344,46.4275391 47.490332,46.3893555 47.4140625,46.3130859 L35.7746094,34.6729492 C35.6220703,34.5204102 35.6220703,34.2733398 35.7746094,34.1208008 C35.9271484,33.9682617 36.1743164,33.9682617 36.3268555,34.1208008 L47.9662109,45.7608398 C48.11875,45.9133789 48.11875,46.1605469 47.9662109,46.3130859 C47.8899414,46.3893555 47.7899414,46.4275391 47.6901367,46.4275391 Z" id="Shape"></path>
                            </g>
                        </g>
                    </g>
                </g>
            </g>
        </g>
    </g>
</svg>