<?xml version="1.0" encoding="UTF-8"?>
<svg width="100px" height="100px" viewBox="0 0 100 100" version="1.1" xmlns="http://www.w3.org/2000/svg" xmlns:xlink="http://www.w3.org/1999/xlink">
    <!-- Generator: Sketch 46.2 (44496) - http://www.bohemiancoding.com/sketch -->
    <title>seguro</title>
    <desc>Created with Sketch.</desc>
    <defs></defs>
    <g id="Page-2" stroke="none" stroke-width="1" fill="none" fill-rule="evenodd">
        <g id="Home" transform="translate(-970.000000, -1717.000000)" fill-rule="nonzero" fill="#36446F">
            <g id="seguro" transform="translate(1020.000000, 1767.000000) scale(-1, 1) translate(-1020.000000, -1767.000000) translate(970.000000, 1717.000000)">
                <path d="M52.0835937,8.37714844 L52.0835937,2.0828125 C52.0835937,0.932226562 51.1513672,0 50.0007812,0 C48.8501953,0 47.9179687,0.932226562 47.9179687,2.0828125 L47.9179687,8.37714844 C21.2699219,9.46953125 0.00078125,31.4164062 0.00078125,58.334375 L0.00078125,58.7859375 C3.57128906,54.2449219 9.11328125,51.3335937 15.334375,51.3335937 C22.8814453,51.3335937 29.4257812,55.6183594 32.6683594,61.8925781 C35.6072266,56.2041016 41.2621094,52.1513672 47.9179687,51.4433594 L47.9179687,89.5841797 C47.9179687,95.3367187 52.5810547,99.9998047 58.3335937,99.9998047 C64.0861328,99.9998047 68.7492187,95.3367187 68.7492187,89.5841797 C68.7492187,88.4306641 67.8183594,87.4998047 66.6679687,87.4998047 C65.5175781,87.4998047 64.5835937,88.4306641 64.5835937,89.5841797 C64.5835937,93.0296875 61.7791016,95.8341797 58.3335937,95.8341797 C54.8880859,95.8341797 52.0835937,93.0296875 52.0835937,89.5841797 L52.0835937,51.4435547 C58.7394531,52.1515625 64.3943359,56.2042969 67.3332031,61.8927734 C70.5742187,55.6183594 77.1201172,51.3337891 84.6671875,51.3337891 C90.8896484,51.3337891 96.4287109,54.2451172 99.9992187,58.7861328 L99.9992187,58.3345703 C99.9992187,31.4164062 78.7314453,9.46953125 52.0835937,8.37714844 Z M84.6671875,47.1664062 C80.2421875,47.1664062 75.9269531,48.3962891 72.1855469,50.7216797 C70.3910156,51.8371094 68.7615234,53.1830078 67.3332031,54.7179687 C65.9050781,53.1830078 64.2753906,51.8371094 62.4808594,50.7216797 C58.7394531,48.3962891 54.4242187,47.1664062 50.0007812,47.1664062 C45.5773437,47.1664062 41.2621094,48.3962891 37.5207031,50.7216797 C35.7248047,51.8371094 34.0951172,53.1830078 32.6683594,54.7179687 C31.2416016,53.1830078 29.6105469,51.8371094 27.8160156,50.7216797 C24.0746094,48.3962891 19.7578125,47.1664062 15.334375,47.1664062 C11.7134766,47.1664062 8.240625,47.9628906 5.00722656,49.5330078 C5.60839844,46.4400391 6.53007812,43.4203125 7.76757812,40.49375 C10.0761719,35.0371094 13.38125,30.1345703 17.5912109,25.9246094 C21.8025391,21.7132812 26.7037109,18.4082031 32.1619141,16.0994141 C37.8089844,13.7115234 43.8117187,12.5 50.0007812,12.5 C56.1882812,12.5 62.1941406,13.7115234 67.8398437,16.0996094 C73.2964844,18.4082031 78.1974609,21.7132813 82.4089844,25.9248047 C86.6203125,30.1347656 89.9253906,35.0373047 92.2355469,40.4939453 C93.4714844,43.4205078 94.3931641,46.4402344 94.9943359,49.5332031 C91.7595703,47.9628906 88.2865234,47.1664062 84.6671875,47.1664062 Z" id="Shape"></path>
            </g>
        </g>
    </g>
</svg>