<?xml version="1.0" encoding="UTF-8"?>
<svg width="100px" height="90px" viewBox="0 0 100 90" version="1.1" xmlns="http://www.w3.org/2000/svg" xmlns:xlink="http://www.w3.org/1999/xlink">
    <!-- Generator: Sketch 46.2 (44496) - http://www.bohemiancoding.com/sketch -->
    <title>trabajo</title>
    <desc>Created with Sketch.</desc>
    <defs></defs>
    <g id="Page-2" stroke="none" stroke-width="1" fill="none" fill-rule="evenodd">
        <g id="Home" transform="translate(-370.000000, -1717.000000)" fill-rule="nonzero" fill="#36446F">
            <g id="trabajo" transform="translate(370.000000, 1717.000000)">
                <g id="Group">
                    <path d="M91.5078125,89.0568359 L8.70585937,89.0568359 C4.82910156,89.0568359 1.67539062,85.9033203 1.67539062,82.0263672 L1.67539062,47.6558594 C1.67539062,47.2240234 2.02480469,46.8746094 2.45664062,46.8746094 C2.88847656,46.8746094 3.23789062,47.2240234 3.23789062,47.6558594 L3.23789062,82.0263672 C3.23789062,85.0412109 5.69121094,87.4943359 8.70605469,87.4943359 L91.5078125,87.4943359 C94.5226562,87.4943359 96.9757812,85.0410156 96.9757812,82.0263672 L96.9757812,47.6558594 C96.9757812,47.2240234 97.3251953,46.8746094 97.7568359,46.8746094 C98.1886719,46.8746094 98.5380859,47.2240234 98.5380859,47.6558594 L98.5380859,82.0263672 C98.5380859,85.903125 95.384375,89.0568359 91.5078125,89.0568359 Z" id="Shape"></path>
                    <path d="M88.7826172,85.9322266 L85.6582031,85.9322266 C85.2279297,85.9322266 84.8769531,85.5828125 84.8769531,85.1509766 C84.8769531,84.7191406 85.2279297,84.3699219 85.6582031,84.3699219 L88.7826172,84.3699219 C89.2160156,84.3699219 89.5638672,84.7191406 89.5638672,85.1509766 C89.5638672,85.5828125 89.2160156,85.9322266 88.7826172,85.9322266 Z M82.5335937,85.9322266 L79.4089844,85.9322266 C78.9787109,85.9322266 78.6277344,85.5828125 78.6277344,85.1509766 C78.6277344,84.7191406 78.9787109,84.3699219 79.4089844,84.3699219 L82.5335937,84.3699219 C82.9667969,84.3699219 83.3146484,84.7191406 83.3146484,85.1509766 C83.3146484,85.5828125 82.9667969,85.9322266 82.5335937,85.9322266 Z M76.284375,85.9322266 L73.1597656,85.9322266 C72.7294922,85.9322266 72.3785156,85.5828125 72.3785156,85.1509766 C72.3785156,84.7191406 72.7294922,84.3699219 73.1597656,84.3699219 L76.284375,84.3699219 C76.7177734,84.3699219 77.0654297,84.7191406 77.0654297,85.1509766 C77.0654297,85.5828125 76.7177734,85.9322266 76.284375,85.9322266 Z M70.0351562,85.9322266 L66.9105469,85.9322266 C66.4802734,85.9322266 66.1294922,85.5828125 66.1294922,85.1509766 C66.1294922,84.7191406 66.4802734,84.3699219 66.9105469,84.3699219 L70.0351562,84.3699219 C70.4685547,84.3699219 70.8164062,84.7191406 70.8164062,85.1509766 C70.8164062,85.5828125 70.4685547,85.9322266 70.0351562,85.9322266 Z M63.7859375,85.9322266 L60.6613281,85.9322266 C60.23125,85.9322266 59.8802734,85.5828125 59.8802734,85.1509766 C59.8802734,84.7191406 60.23125,84.3699219 60.6613281,84.3699219 L63.7859375,84.3699219 C64.2193359,84.3699219 64.5671875,84.7191406 64.5671875,85.1509766 C64.5671875,85.5828125 64.2193359,85.9322266 63.7859375,85.9322266 Z M57.5367187,85.9322266 L54.4123047,85.9322266 C53.9820313,85.9322266 53.6310547,85.5828125 53.6310547,85.1509766 C53.6310547,84.7191406 53.9820313,84.3699219 54.4123047,84.3699219 L57.5367187,84.3699219 C57.9701172,84.3699219 58.3179687,84.7191406 58.3179687,85.1509766 C58.3179687,85.5828125 57.9701172,85.9322266 57.5367187,85.9322266 Z M51.2884766,85.9322266 L48.1638672,85.9322266 C47.7320312,85.9322266 47.3826172,85.5828125 47.3826172,85.1509766 C47.3826172,84.7191406 47.7320312,84.3699219 48.1638672,84.3699219 L51.2884766,84.3699219 C51.7208984,84.3699219 52.06875,84.7191406 52.06875,85.1509766 C52.06875,85.5828125 51.7208984,85.9322266 51.2884766,85.9322266 Z M45.0392578,85.9322266 L41.9146484,85.9322266 C41.4830078,85.9322266 41.1335938,85.5828125 41.1335938,85.1509766 C41.1335938,84.7191406 41.4830078,84.3699219 41.9146484,84.3699219 L45.0392578,84.3699219 C45.4710938,84.3699219 45.8205078,84.7191406 45.8205078,85.1509766 C45.8205078,85.5828125 45.4710938,85.9322266 45.0392578,85.9322266 Z M38.7898438,85.9322266 L35.6652344,85.9322266 C35.2335938,85.9322266 34.8839844,85.5828125 34.8839844,85.1509766 C34.8839844,84.7191406 35.2333984,84.3699219 35.6652344,84.3699219 L38.7898438,84.3699219 C39.2216797,84.3699219 39.5710938,84.7191406 39.5710938,85.1509766 C39.5710938,85.5828125 39.2216797,85.9322266 38.7898438,85.9322266 Z M32.5408203,85.9322266 L29.4162109,85.9322266 C28.984375,85.9322266 28.6349609,85.5828125 28.6349609,85.1509766 C28.6349609,84.7191406 28.984375,84.3699219 29.4162109,84.3699219 L32.5408203,84.3699219 C32.9724609,84.3699219 33.3220703,84.7191406 33.3220703,85.1509766 C33.3220703,85.5828125 32.9724609,85.9322266 32.5408203,85.9322266 Z M26.2916016,85.9322266 L23.1669922,85.9322266 C22.7351562,85.9322266 22.3857422,85.5828125 22.3857422,85.1509766 C22.3857422,84.7191406 22.7351562,84.3699219 23.1669922,84.3699219 L26.2916016,84.3699219 C26.7232422,84.3699219 27.0726563,84.7191406 27.0726563,85.1509766 C27.0726563,85.5828125 26.7234375,85.9322266 26.2916016,85.9322266 Z M20.0423828,85.9322266 L16.9177734,85.9322266 C16.4861328,85.9322266 16.1367187,85.5828125 16.1367187,85.1509766 C16.1367187,84.7191406 16.4861328,84.3699219 16.9177734,84.3699219 L20.0423828,84.3699219 C20.4742187,84.3699219 20.8236328,84.7191406 20.8236328,85.1509766 C20.8236328,85.5828125 20.4742187,85.9322266 20.0423828,85.9322266 Z M13.7931641,85.9322266 L10.66875,85.9322266 C10.2371094,85.9322266 9.8875,85.5828125 9.8875,85.1509766 C9.8875,84.7191406 10.2369141,84.3699219 10.66875,84.3699219 L13.7933594,84.3699219 C14.2251953,84.3699219 14.5746094,84.7191406 14.5746094,85.1509766 C14.5746094,85.5828125 14.225,85.9322266 13.7931641,85.9322266 Z M91.8507812,85.5263672 C91.5519531,85.5263672 91.2666016,85.3539062 91.1384766,85.0640625 C90.9615234,84.6703125 91.1369141,84.2082031 91.5306641,84.03125 C92.3253906,83.6742187 92.9890625,83.0533203 93.3994141,82.28125 C93.6007812,81.8982422 94.0738281,81.75625 94.4552734,81.95625 C94.8365234,82.1591797 94.9814453,82.6322266 94.7785156,83.0136719 C94.2080078,84.0921875 93.2802734,84.9587891 92.1697266,85.45625 C92.0660156,85.5033203 91.9576172,85.5263672 91.8507812,85.5263672 Z M7.69746094,85.1601562 C7.55019531,85.1601562 7.40078125,85.1173828 7.26796875,85.0304687 C6.24726563,84.3578125 5.47148438,83.3505859 5.08300781,82.1972656 C4.94570313,81.7882813 5.16542969,81.3460937 5.57519531,81.2085938 C5.98417969,81.0742188 6.42734375,81.2925781 6.56445313,81.6998047 C6.84140625,82.5238281 7.396875,83.2439453 8.12832031,83.7259766 C8.48847656,83.9640625 8.58769531,84.4490234 8.35039062,84.8091797 C8.2,85.0349609 7.95136719,85.1601562 7.69746094,85.1601562 Z M94.6324219,80.39375 C94.2005859,80.39375 93.8511719,80.0429688 93.8511719,79.6126953 L93.8511719,76.4880859 C93.8511719,76.0546875 94.2005859,75.7068359 94.6324219,75.7068359 C95.0640625,75.7068359 95.4134766,76.0546875 95.4134766,76.4880859 L95.4134766,79.6126953 C95.4134766,80.0429688 95.0640625,80.39375 94.6324219,80.39375 Z M5.58125,79.6326172 C5.14941406,79.6326172 4.8,79.2832031 4.8,78.8513672 L4.8,75.7267578 C4.8,75.2951172 5.14941406,74.9457031 5.58125,74.9457031 C6.01308594,74.9457031 6.3625,75.2951172 6.3625,75.7267578 L6.3625,78.8513672 C6.3625,79.2832031 6.01308594,79.6326172 5.58125,79.6326172 Z M94.6324219,74.1447266 C94.2005859,74.1447266 93.8511719,73.79375 93.8511719,73.3634766 L93.8511719,70.2388672 C93.8511719,69.8054688 94.2005859,69.4578125 94.6324219,69.4578125 C95.0640625,69.4578125 95.4134766,69.8054687 95.4134766,70.2388672 L95.4134766,73.3634766 C95.4134766,73.79375 95.0640625,74.1447266 94.6324219,74.1447266 Z M5.58125,73.3833984 C5.14941406,73.3833984 4.8,73.0339844 4.8,72.6023437 L4.8,69.4777344 C4.8,69.0458984 5.14941406,68.6964844 5.58125,68.6964844 C6.01308594,68.6964844 6.3625,69.0458984 6.3625,69.4777344 L6.3625,72.6023437 C6.3625,73.0339844 6.01308594,73.3833984 5.58125,73.3833984 Z M94.6324219,67.8955078 C94.2005859,67.8955078 93.8511719,67.5445312 93.8511719,67.1142578 L93.8511719,63.9896484 C93.8511719,63.5564453 94.2005859,63.2085937 94.6324219,63.2085937 C95.0640625,63.2085937 95.4134766,63.5564453 95.4134766,63.9896484 L95.4134766,67.1142578 C95.4134766,67.5445312 95.0640625,67.8955078 94.6324219,67.8955078 Z M5.58125,67.1341797 C5.14941406,67.1341797 4.8,66.7847656 4.8,66.353125 L4.8,63.2285156 C4.8,62.7966797 5.14941406,62.4474609 5.58125,62.4474609 C6.01308594,62.4474609 6.3625,62.7966797 6.3625,63.2285156 L6.3625,66.353125 C6.3625,66.7847656 6.01308594,67.1341797 5.58125,67.1341797 Z M94.6324219,61.6462891 C94.2005859,61.6462891 93.8511719,61.2953125 93.8511719,60.8652344 L93.8511719,57.740625 C93.8511719,57.3072266 94.2005859,56.959375 94.6324219,56.959375 C95.0640625,56.959375 95.4134766,57.3072266 95.4134766,57.740625 L95.4134766,60.8652344 C95.4134766,61.2953125 95.0640625,61.6462891 94.6324219,61.6462891 Z M5.58125,60.8849609 C5.14941406,60.8849609 4.8,60.5355469 4.8,60.1037109 L4.8,56.9791016 C4.8,56.5474609 5.14941406,56.1980469 5.58125,56.1980469 C6.01308594,56.1980469 6.3625,56.5474609 6.3625,56.9791016 L6.3625,60.1037109 C6.3625,60.5355469 6.01308594,60.8849609 5.58125,60.8849609 Z M94.6324219,55.3970703 C94.2005859,55.3970703 93.8511719,55.0460937 93.8511719,54.6160156 L93.8511719,51.4914062 C93.8511719,51.0580078 94.2005859,50.7103516 94.6324219,50.7103516 C95.0640625,50.7103516 95.4134766,51.0580078 95.4134766,51.4914062 L95.4134766,54.6160156 C95.4134766,55.0460937 95.0640625,55.3970703 94.6324219,55.3970703 Z M5.58125,54.6357422 C5.14941406,54.6357422 4.8,54.2863281 4.8,53.8546875 L4.8,50.7300781 C4.8,50.2982422 5.14941406,49.9488281 5.58125,49.9488281 C6.01308594,49.9488281 6.3625,50.2982422 6.3625,50.7300781 L6.3625,53.8546875 C6.3625,54.2863281 6.01308594,54.6357422 5.58125,54.6357422 Z" id="Shape"></path>
                    <g transform="translate(43.750000, 46.679688)" id="Shape">
                        <path d="M11.7179687,17.3800781 L0.781835937,17.3800781 C0.350195312,17.3800781 0.0005859375,17.0308594 0.0005859375,16.5990234 L0.0005859375,0.976171875 C0.0005859375,0.544335937 0.35,0.194921875 0.781835937,0.194921875 L11.7179687,0.194921875 C12.1498047,0.194921875 12.4992187,0.544335937 12.4992187,0.976171875 L12.4992187,16.5990234 C12.4992187,17.0308594 12.1498047,17.3800781 11.7179687,17.3800781 Z M1.56308594,15.8179688 L10.9367187,15.8179688 L10.9367187,1.75722656 L1.56308594,1.75722656 L1.56308594,15.8179688 Z"></path>
                        <path d="M6.25,12.6933594 C4.9578125,12.6933594 3.90644531,11.6419922 3.90644531,10.3498047 C3.90644531,9.05761719 4.9578125,8.00644531 6.25,8.00644531 C7.5421875,8.00644531 8.59335937,9.05761719 8.59335937,10.3498047 C8.59335937,11.6419922 7.5421875,12.6933594 6.25,12.6933594 Z M6.25,9.56875 C5.81894531,9.56875 5.46875,9.91972656 5.46875,10.3498047 C5.46875,10.7800781 5.81894531,11.1310547 6.25,11.1310547 C6.68105469,11.1310547 7.03105469,10.7800781 7.03105469,10.3498047 C7.03105469,9.91972656 6.68105469,9.56875 6.25,9.56875 Z"></path>
                        <path d="M6.25,14.2554688 C5.81816406,14.2554688 5.46875,13.90625 5.46875,13.4744141 L5.46875,11.9121094 C5.46875,11.4802734 5.81816406,11.1310547 6.25,11.1310547 C6.68183594,11.1310547 7.03105469,11.4802734 7.03105469,11.9121094 L7.03105469,13.4744141 C7.03105469,13.90625 6.68183594,14.2554688 6.25,14.2554688 Z"></path>
                        <path d="M11.7179687,6.47011719 L0.781835937,6.47011719 C0.350195312,6.47011719 0.0005859375,6.12070313 0.0005859375,5.68886719 C0.0005859375,5.25722656 0.35,4.9078125 0.781835937,4.9078125 L11.7179687,4.9078125 C12.1498047,4.9078125 12.4992187,5.25722656 12.4992187,5.68886719 C12.4992187,6.12070313 12.1498047,6.47011719 11.7179687,6.47011719 Z"></path>
                    </g>
                    <path d="M39.8451172,52.8507812 C39.8291016,52.8507812 39.8130859,52.8492188 39.7970703,52.8492188 C13.3173828,51.2533203 0.900390625,43.9484375 0.384765625,43.6378906 C0.149804687,43.496875 0.0064453125,43.2429688 0.0064453125,42.9689453 L0.0064453125,21.096875 C0.0064453125,16.3587891 3.8609375,12.5041016 8.59902344,12.5041016 L91.4007812,12.5041016 C96.1394531,12.5041016 99.9933594,16.3587891 99.9933594,21.096875 L99.9933594,42.9689453 C99.9933594,43.2427734 99.85,43.496875 99.6148438,43.6378906 C99.0990234,43.9484375 86.6832031,51.2533203 60.2019531,52.8492187 C59.7914063,52.8675781 59.4007813,52.5470703 59.375,52.1167969 C59.3492187,51.6867187 59.6771484,51.3158203 60.1074219,51.2900391 C83.659375,49.8710938 96.1576172,43.7302734 98.4310547,42.5097656 L98.4310547,21.096875 C98.4310547,17.2199219 95.2775391,14.0664062 91.4007813,14.0664062 L8.59902344,14.0664062 C4.72226562,14.0664062 1.56875,17.2199219 1.56875,21.096875 L1.56875,42.5097656 C3.84121094,43.7302734 16.3404297,49.8710938 39.8914062,51.2900391 C40.3216797,51.3160156 40.6496094,51.6867187 40.6238281,52.1167969 C40.5986328,52.5318359 40.2546875,52.8507812 39.8451172,52.8507812 Z" id="Shape"></path>
                    <path d="M52.3433594,49.2179687 L47.6564453,49.2179687 C47.2248047,49.2179687 46.8753906,48.86875 46.8753906,48.4369141 C46.8753906,48.0052734 47.2248047,47.6558594 47.6564453,47.6558594 L52.3433594,47.6558594 C52.7751953,47.6558594 53.1246094,48.0052734 53.1246094,48.4369141 C53.1246094,48.86875 52.7751953,49.2179687 52.3433594,49.2179687 Z" id="Shape"></path>
                    <path d="M55.4679687,46.0935547 C55.0361328,46.0935547 54.6867187,45.7441406 54.6867187,45.3123047 C54.6867187,42.7279297 52.584375,40.6253906 50,40.6253906 C47.4154297,40.6253906 45.3130859,42.7277344 45.3130859,45.3123047 C45.3130859,45.7441406 44.9636719,46.0935547 44.5318359,46.0935547 C44.1,46.0935547 43.7505859,45.7441406 43.7505859,45.3123047 C43.7505859,41.8666016 46.5541016,39.0630859 49.9998047,39.0630859 C53.4449219,39.0630859 56.2490234,41.8666016 56.2490234,45.3123047 C56.2492187,45.7441406 55.8998047,46.0935547 55.4679687,46.0935547 Z" id="Shape"></path>
                    <g transform="translate(3.125000, 18.750000)" id="Shape">
                        <path d="M0.787109375,21.8753906 C0.35546875,21.8753906 0.0060546875,21.5259766 0.0060546875,21.0941406 L0.0060546875,19.5318359 C0.0060546875,19.1 0.35546875,18.7505859 0.787109375,18.7505859 C1.21894531,18.7505859 1.56835938,19.1 1.56835938,19.5318359 L1.56835938,21.0941406 C1.56835938,21.5261719 1.21894531,21.8753906 0.787109375,21.8753906 Z"></path>
                        <path d="M0.787109375,16.8757812 C0.35546875,16.8757812 0.0060546875,16.5263672 0.0060546875,16.0945312 L0.0060546875,12.6572266 C0.0060546875,12.2253906 0.35546875,11.8759766 0.787109375,11.8759766 C1.21894531,11.8759766 1.56835938,12.2253906 1.56835938,12.6572266 L1.56835938,16.0945312 C1.56835938,16.5263672 1.21894531,16.8757812 0.787109375,16.8757812 Z M0.787109375,10.0017578 C0.35546875,10.0017578 0.0060546875,9.65234375 0.0060546875,9.22050781 L0.0060546875,5.78300781 C0.0060546875,5.35136719 0.35546875,5.00195313 0.787109375,5.00195313 C1.21894531,5.00195313 1.56835938,5.35136719 1.56835938,5.78300781 L1.56835938,9.22050781 C1.56835938,9.65253906 1.21894531,10.0017578 0.787109375,10.0017578 Z"></path>
                        <path d="M0.787109375,3.12792969 C0.35546875,3.12792969 0.0060546875,2.77851562 0.0060546875,2.346875 L0.0060546875,0.784570312 C0.0060546875,0.352734375 0.35546875,0.0033203125 0.787109375,0.0033203125 C1.21894531,0.0033203125 1.56835938,0.352734375 1.56835938,0.784570312 L1.56835938,2.346875 C1.56835938,2.77851562 1.21894531,3.12792969 0.787109375,3.12792969 Z"></path>
                    </g>
                    <path d="M96.0876953,40.6253906 C95.6560547,40.6253906 95.3066406,40.2759766 95.3066406,39.8441406 L95.3066406,36.7195313 C95.3066406,36.2876953 95.6560547,35.9382813 96.0876953,35.9382813 C96.5195312,35.9382813 96.8689453,36.2876953 96.8689453,36.7195313 L96.8689453,39.8441406 C96.8689453,40.2761719 96.5195312,40.6253906 96.0876953,40.6253906 Z M96.0876953,34.3763672 C95.6560547,34.3763672 95.3066406,34.0269531 95.3066406,33.5951172 L95.3066406,30.4705078 C95.3066406,30.0388672 95.6560547,29.6894531 96.0876953,29.6894531 C96.5195312,29.6894531 96.8689453,30.0388672 96.8689453,30.4705078 L96.8689453,33.5951172 C96.8689453,34.0269531 96.5195312,34.3763672 96.0876953,34.3763672 Z M96.0876953,28.1271484 C95.6560547,28.1271484 95.3066406,27.7777344 95.3066406,27.3458984 L95.3066406,24.2212891 C95.3066406,23.7896484 95.6560547,23.4400391 96.0876953,23.4400391 C96.5195312,23.4400391 96.8689453,23.7894531 96.8689453,24.2212891 L96.8689453,27.3458984 C96.8689453,27.7777344 96.5195312,28.1271484 96.0876953,28.1271484 Z M96.0876953,21.8779297 C95.6560547,21.8779297 95.3066406,21.5285156 95.3066406,21.096875 L95.3066406,19.5345703 C95.3066406,19.1027344 95.6560547,18.7533203 96.0876953,18.7533203 C96.5195312,18.7533203 96.8689453,19.1027344 96.8689453,19.5345703 L96.8689453,21.096875 C96.8689453,21.5285156 96.5195312,21.8779297 96.0876953,21.8779297 Z" id="Shape"></path>
                    <path d="M75.7777344,18.7533203 L24.2220703,18.7533203 C23.7904297,18.7533203 23.4410156,18.4039062 23.4410156,17.9722656 C23.4410156,17.5404297 23.7904297,17.1910156 24.2220703,17.1910156 L75.7779297,17.1910156 C76.2097656,17.1910156 76.5591797,17.5404297 76.5591797,17.9722656 C76.5589844,18.4039062 76.2095703,18.7533203 75.7777344,18.7533203 Z" id="Shape"></path>
                    <path d="M64.8417969,7.8171875 L35.1582031,7.8171875 C34.7263672,7.8171875 34.3769531,7.46777344 34.3769531,7.0359375 L34.3769531,3.91132813 C34.3769531,3.7078125 34.45625,3.5125 34.5982422,3.36679688 C34.7318359,3.22949219 38.0037109,0.0056640625 50,0.0056640625 C61.9962891,0.0056640625 65.2689453,3.22949219 65.4015625,3.36679688 C65.5435547,3.5125 65.6228516,3.7078125 65.6228516,3.91132813 L65.6228516,7.0359375 C65.6228516,7.46777344 65.2734375,7.8171875 64.8417969,7.8171875 Z M35.9392578,6.25488281 L64.0605469,6.25488281 L64.0605469,4.28222656 C63.1878906,3.65820312 59.5476563,1.56816406 50,1.56816406 C40.4697266,1.56816406 36.8257813,3.65078125 35.9392578,4.28378906 L35.9392578,6.25488281 Z" id="Shape"></path>
                    <path d="M35.1582031,10.9417969 C34.7263672,10.9417969 34.3769531,10.5923828 34.3769531,10.1605469 L34.3769531,7.0359375 C34.3769531,6.60429688 34.7263672,6.25488281 35.1582031,6.25488281 C35.5898438,6.25488281 35.9392578,6.60429688 35.9392578,7.0359375 L35.9392578,10.1605469 C35.9392578,10.5923828 35.5898438,10.9417969 35.1582031,10.9417969 Z" id="Shape"></path>
                    <path d="M38.2828125,10.9417969 C37.8509766,10.9417969 37.5015625,10.5923828 37.5015625,10.1605469 L37.5015625,7.0359375 C37.5015625,6.60429688 37.8509766,6.25488281 38.2828125,6.25488281 C38.7144531,6.25488281 39.0638672,6.60429688 39.0638672,7.0359375 L39.0638672,10.1605469 C39.0638672,10.5923828 38.7144531,10.9417969 38.2828125,10.9417969 Z" id="Shape"></path>
                    <path d="M61.7171875,10.9417969 C61.2853516,10.9417969 60.9359375,10.5923828 60.9359375,10.1605469 L60.9359375,7.0359375 C60.9359375,6.60429688 61.2853516,6.25488281 61.7171875,6.25488281 C62.1490234,6.25488281 62.4982422,6.60429688 62.4982422,7.0359375 L62.4982422,10.1605469 C62.4982422,10.5923828 62.1490234,10.9417969 61.7171875,10.9417969 Z" id="Shape"></path>
                    <path d="M64.8417969,10.9417969 C64.4099609,10.9417969 64.0605469,10.5923828 64.0605469,10.1605469 L64.0605469,7.0359375 C64.0605469,6.60429688 64.4099609,6.25488281 64.8417969,6.25488281 C65.2734375,6.25488281 65.6228516,6.60429688 65.6228516,7.0359375 L65.6228516,10.1605469 C65.6228516,10.5923828 65.2734375,10.9417969 64.8417969,10.9417969 Z" id="Shape"></path>
                    <path d="M53.9056641,82.8076172 C53.4740234,82.8076172 53.1246094,82.4582031 53.1246094,82.0263672 L53.1246094,78.9017578 C53.1246094,78.4701172 53.4740234,78.1207031 53.9056641,78.1207031 C54.3375,78.1207031 54.6867188,78.4701172 54.6867188,78.9017578 L54.6867188,82.0263672 C54.6867187,82.4582031 54.3375,82.8076172 53.9056641,82.8076172 Z M53.9056641,76.5583984 C53.4740234,76.5583984 53.1246094,76.2089844 53.1246094,75.7771484 L53.1246094,72.6527344 C53.1246094,72.2208984 53.4740234,71.8714844 53.9056641,71.8714844 C54.3375,71.8714844 54.6867188,72.2208984 54.6867188,72.6527344 L54.6867188,75.7771484 C54.6867187,76.2087891 54.3375,76.5583984 53.9056641,76.5583984 Z M53.9056641,70.3089844 C53.4740234,70.3089844 53.1246094,69.9595703 53.1246094,69.5279297 L53.1246094,66.4033203 C53.1246094,65.9714844 53.4740234,65.6222656 53.9056641,65.6222656 C54.3375,65.6222656 54.6867188,65.9714844 54.6867188,66.4033203 L54.6867188,69.5279297 C54.6867187,69.9595703 54.3375,70.3089844 53.9056641,70.3089844 Z" id="Shape"></path>
                    <path d="M46.0941406,82.8076172 C45.6625,82.8076172 45.3128906,82.4582031 45.3128906,82.0263672 L45.3128906,78.9017578 C45.3128906,78.4701172 45.6623047,78.1207031 46.0941406,78.1207031 C46.5259766,78.1207031 46.8753906,78.4701172 46.8753906,78.9017578 L46.8753906,82.0263672 C46.8753906,82.4582031 46.5259766,82.8076172 46.0941406,82.8076172 Z M46.0941406,76.5583984 C45.6625,76.5583984 45.3128906,76.2089844 45.3128906,75.7771484 L45.3128906,72.6527344 C45.3128906,72.2208984 45.6623047,71.8714844 46.0941406,71.8714844 C46.5259766,71.8714844 46.8753906,72.2208984 46.8753906,72.6527344 L46.8753906,75.7771484 C46.8753906,76.2087891 46.5259766,76.5583984 46.0941406,76.5583984 Z M46.0941406,70.3089844 C45.6625,70.3089844 45.3128906,69.9595703 45.3128906,69.5279297 L45.3128906,66.4033203 C45.3128906,65.9714844 45.6623047,65.6222656 46.0941406,65.6222656 C46.5259766,65.6222656 46.8753906,65.9714844 46.8753906,66.4033203 L46.8753906,69.5279297 C46.8753906,69.9595703 46.5259766,70.3089844 46.0941406,70.3089844 Z" id="Shape"></path>
                    <path d="M50,82.8076172 C49.5681641,82.8076172 49.21875,82.4582031 49.21875,82.0263672 L49.21875,66.4035156 C49.21875,65.9716797 49.5681641,65.6224609 50,65.6224609 C50.4318359,65.6224609 50.7810547,65.9716797 50.7810547,66.4035156 L50.7810547,82.0263672 C50.7810547,82.4582031 50.4318359,82.8076172 50,82.8076172 Z" id="Shape"></path>
                </g>
            </g>
        </g>
    </g>
</svg>